<?xml version="1.0" ?>
<!-- Uploaded to: SVG Repo, www.svgrepo.com, Generator: SVG Repo Mixer Tools -->
<svg fill="#000000" width="800px" height="800px" viewBox="0 0 64 64" version="1.1" xml:space="preserve" xmlns="http://www.w3.org/2000/svg" xmlns:xlink="http://www.w3.org/1999/xlink">
<g id="cloudy_sunny"/>
<g id="bright"/>
<g id="cloudy"/>
<g id="high_rainfall"/>
<g id="windy"/>
<g id="rain_with_thunder"/>
<g id="clear_night">
<g>
<path d="M22.1,50.8h-0.6C21,47.5,18.3,45,15,45c-2.6,0-5,1.7-6,4.1c-3.3-0.2-6,2.6-6,5.9C3,58.3,5.6,61,8.7,61h13.4    c2.7,0,4.9-2.3,4.9-5.1S24.8,50.8,22.1,50.8z M22.1,59H8.7c-2,0-3.7-1.8-3.7-3.9c0-2.2,1.7-3.9,3.7-3.9c0.3,0,0.5,0,0.8,0.1    c0.5,0.1,1-0.2,1.2-0.7C11.2,48.4,13,47,15,47c2.5,0,4.5,2.1,4.5,4.8c0,0.6,0.4,1,1,1h1.6c1.6,0,2.9,1.4,2.9,3.1S23.7,59,22.1,59z    "/>
<path d="M56.4,7.9h-0.5C55.4,5.1,53,3,50,3c-2.4,0-4.5,1.4-5.5,3.5c-3-0.1-5.5,2.3-5.5,5.2c0,2.9,2.4,5.2,5.3,5.2h12.1    c2.5,0,4.6-2,4.6-4.5S58.9,7.9,56.4,7.9z M56.4,15H44.3c-1.8,0-3.3-1.5-3.3-3.2s1.5-3.2,3.3-3.2c0.2,0,0.5,0,0.7,0.1    c0.5,0.1,1-0.2,1.2-0.7C46.6,6.2,48.2,5,50,5c2.2,0,4,1.8,4,3.9c0,0.6,0.4,1,1,1h1.4c1.4,0,2.6,1.1,2.6,2.5S57.8,15,56.4,15z"/>
<path d="M40,22c2.1,0,4.2,0.7,5.9,1.9c0.4,0.3,0.9,0.3,1.3-0.1c0.4-0.3,0.4-0.9,0.2-1.3C44,17.2,38.3,14,32,14    c-9.9,0-18,8.1-18,18s8.1,18,18,18c6.3,0,12-3.2,15.4-8.6c0.3-0.4,0.2-0.9-0.2-1.3c-0.4-0.3-0.9-0.4-1.3-0.1    C44.2,41.3,42.1,42,40,42c-5.5,0-10-4.5-10-10S34.5,22,40,22z M28,32c0,6.6,5.4,12,12,12c1,0,2-0.1,3-0.4c-2.9,2.8-6.8,4.4-11,4.4    c-8.8,0-16-7.2-16-16s7.2-16,16-16c4.2,0,8.1,1.6,11,4.4c-1-0.3-2-0.4-3-0.4C33.4,20,28,25.4,28,32z"/>
</g>
</g>
<g id="cloudy_night"/>
<g id="moon"/>
<g id="sun"/>
<g id="rainy_night"/>
<g id="windy_night"/>
<g id="night_rain_thunder"/>
<g id="windy_rain"/>
<g id="temperature"/>
<g id="humidity"/>
<g id="air_pressure"/>
<g id="low_rainfall"/>
<g id="moderate_rainfall"/>
<g id="Sunset"/>
</svg>