<!DOCTYPE svg PUBLIC "-//W3C//DTD SVG 1.1//EN" "http://www.w3.org/Graphics/SVG/1.1/DTD/svg11.dtd">
<!-- Uploaded to: SVG Repo, www.svgrepo.com, Transformed by: SVG Repo Mixer Tools -->
<svg fill="#ffffff" version="1.1" id="Layer_1" xmlns="http://www.w3.org/2000/svg" xmlns:xlink="http://www.w3.org/1999/xlink" viewBox="0 0 512 512" xml:space="preserve" width="800px" height="800px" stroke="#ffffff">
<g id="SVGRepo_bgCarrier" stroke-width="0"/>
<g id="SVGRepo_tracerCarrier" stroke-linecap="round" stroke-linejoin="round"/>
<g id="SVGRepo_iconCarrier"> <g> <g> <path d="M391.191,241.576c0-82.607-66.966-149.573-149.573-149.573S92.045,158.969,92.045,241.576 c-41.303,0-74.786,33.484-74.786,74.786h448.719C465.978,275.06,432.494,241.576,391.191,241.576z"/> </g> </g> <g> <g> <rect y="339.378" width="477.483" height="34.517"/> </g> </g> <g> <g> <rect y="454.435" width="477.483" height="34.517"/> </g> </g> <g> <g> <rect x="34.517" y="396.906" width="477.483" height="34.517"/> </g> </g> <g> <g> <path d="M387.372,23.049c-34.738,1.194-65.346,18.603-84.525,44.887c3.508,1.238,6.99,2.574,10.438,4.032 c21.925,9.275,41.609,22.543,58.505,39.438c16.895,16.895,30.164,36.579,39.438,58.505c5.729,13.542,9.773,27.579,12.105,41.971 c9.547,2.943,18.534,7.169,26.775,12.463c29.296-18.789,49.039-51.171,50.314-88.25C442.669,126.371,397.097,80.8,387.372,23.049z "/> </g> </g> </g>
</svg>