<?xml version="1.0" encoding="iso-8859-1"?>
<!-- Uploaded to: SVG Repo, www.svgrepo.com, Generator: SVG Repo Mixer Tools -->
<svg fill="#000000" version="1.1" id="Layer_1" xmlns="http://www.w3.org/2000/svg" xmlns:xlink="http://www.w3.org/1999/xlink" 
	 viewBox="0 0 512 512" xml:space="preserve">
<g>
	<g>
		<path d="M385.438,241.618c0-82.607-66.966-149.573-149.573-149.573S86.292,159.011,86.292,241.618
			c-41.303,0-74.786,33.484-74.786,74.786h448.719C460.225,275.102,426.741,241.618,385.438,241.618z"/>
	</g>
</g>
<g>
	<g>
		<path d="M385.438,23.011c-36.312,0-68.481,17.712-88.357,44.961c3.513,1.24,7,2.577,10.452,4.037
			c21.925,9.275,41.609,22.543,58.505,39.438c16.895,16.895,30.164,36.579,39.438,58.505c5.728,13.543,9.773,27.579,12.105,41.971
			c9.551,2.944,18.541,7.173,26.783,12.469c30.299-19.432,50.379-53.41,50.379-92.077C494.742,71.948,445.805,23.011,385.438,23.011
			z"/>
	</g>
</g>
<g>
	<g>
		<rect y="339.416" width="477.483" height="34.517"/>
	</g>
</g>
<g>
	<g>
		<rect y="454.472" width="477.483" height="34.517"/>
	</g>
</g>
<g>
	<g>
		<rect x="34.517" y="396.944" width="477.483" height="34.517"/>
	</g>
</g>
</svg>